HIERARCHY
ROOT root
{
	OFFSET 0.000000 0.000000 0.000000
	CHANNELS 6 Xposition Yposition Zposition Zrotation Yrotation Xrotation
	JOINT lhip
	{
		OFFSET 0.058581 -0.082280 -0.017664
		CHANNELS 3 Zrotation Yrotation Xrotation
		JOINT lknee
		{
			OFFSET 0.043451 -0.386469 0.008037
			CHANNELS 3 Zrotation Yrotation Xrotation
			JOINT lankle
			{
				OFFSET -0.014790 -0.426874 -0.037428
				CHANNELS 3 Zrotation Yrotation Xrotation
				JOINT ltoe
				{
					OFFSET 0.041054 -0.060286 0.122042
					CHANNELS 3 Zrotation Yrotation Xrotation
					End Site
					{
						OFFSET 0.000000 0.000000 0.000000
					}
				}
			}
		}
	}
	JOINT rhip
	{
		OFFSET -0.060310 -0.090513 -0.013543
		CHANNELS 3 Zrotation Yrotation Xrotation
		JOINT rknee
		{
			OFFSET -0.043257 -0.383688 -0.004843
			CHANNELS 3 Zrotation Yrotation Xrotation
			JOINT rankle
			{
				OFFSET 0.019056 -0.420046 -0.034562
				CHANNELS 3 Zrotation Yrotation Xrotation
				JOINT rtoe
				{
					OFFSET -0.034840 -0.062106 0.130323
					CHANNELS 3 Zrotation Yrotation Xrotation
					End Site
					{
						OFFSET 0.000000 0.000000 0.000000
					}
				}
			}
		}
	}
	JOINT lowerback
	{
		OFFSET 0.004439 0.124404 -0.038385
		CHANNELS 3 Zrotation Yrotation Xrotation
		JOINT upperback
		{
			OFFSET 0.004488 0.137956 0.026820
			CHANNELS 3 Zrotation Yrotation Xrotation
			JOINT chest
			{
				OFFSET -0.002265 0.056032 0.002855
				CHANNELS 3 Zrotation Yrotation Xrotation
				JOINT lowerneck
				{
					OFFSET -0.013390 0.211636 -0.033468
					CHANNELS 3 Zrotation Yrotation Xrotation
					JOINT upperneck
					{
						OFFSET 0.010113 0.088937 0.050410
						CHANNELS 3 Zrotation Yrotation Xrotation
						End Site
						{
							OFFSET 0.000000 0.000000 0.000000
						}
					}
				}
				JOINT lclavicle
				{
					OFFSET 0.071702 0.114000 -0.018898
					CHANNELS 3 Zrotation Yrotation Xrotation
					JOINT lshoulder
					{
						OFFSET 0.122921 0.045205 -0.019046
						CHANNELS 3 Zrotation Yrotation Xrotation
						JOINT lelbow
						{
							OFFSET 0.255332 -0.015649 -0.022946
							CHANNELS 3 Zrotation Yrotation Xrotation
							JOINT lwrist
							{
								OFFSET 0.265709 0.012698 -0.007375
								CHANNELS 3 Zrotation Yrotation Xrotation
								End Site
								{
									OFFSET 0.000000 0.000000 0.000000
								}
							}
						}
					}
				}
				JOINT rclavicle
				{
					OFFSET -0.082954 0.112472 -0.023707
					CHANNELS 3 Zrotation Yrotation Xrotation
					JOINT rshoulder
					{
						OFFSET -0.113228 0.046853 -0.008472
						CHANNELS 3 Zrotation Yrotation Xrotation
						JOINT relbow
						{
							OFFSET -0.260127 -0.014369 -0.031269
							CHANNELS 3 Zrotation Yrotation Xrotation
							JOINT rwrist
							{
								OFFSET -0.269108 0.006794 -0.006027
								CHANNELS 3 Zrotation Yrotation Xrotation
								End Site
								{
									OFFSET 0.000000 0.000000 0.000000
								}
							}
						}
					}
				}
			}
		}
	}
}
MOTION
Frames: 16
Frame Time: 0.033333
1.170890 0.183336 0.990755 -88.865799 1.061798 86.717650 -2.664401 -3.929976 3.121320 -2.568494 -14.956535 7.778035 4.831573 10.248682 -18.256025 0.000000 -0.000000 0.000000 3.939579 -0.539961 -0.242847 2.860272 1.692987 10.344634 2.406387 -5.089760 -13.211032 0.000000 -0.000000 0.000000 -2.198666 0.371741 8.088306 1.328643 -4.072741 4.196410 -0.028505 -1.408916 6.854969 2.491198 10.241716 6.933076 1.038251 3.468410 12.770263 -21.696130 7.239258 2.888310 -62.973657 -5.931761 11.127194 13.660107 -33.609276 -0.091778 7.994978 -11.629347 -26.634505 22.259800 -7.188447 1.975540 65.846326 -0.756726 13.336580 -17.455327 28.996667 -1.862966 3.393365 2.521724 -10.962404 
1.171357 0.182982 0.989209 -88.764641 1.535846 86.889438 -2.039319 -4.077051 2.835324 -2.650484 -14.575058 7.794468 4.683558 9.933652 -18.469672 0.000000 -0.000000 0.000000 4.446897 -0.434667 -0.286299 2.674928 1.322965 10.054267 2.223458 -5.034195 -12.986368 0.000000 -0.000000 0.000000 -2.128934 0.734300 7.465673 1.877729 -4.025885 5.270199 0.248165 -1.767820 6.720636 2.652948 10.387914 6.475853 0.756247 3.380497 13.225404 -21.156098 6.027751 3.639444 -64.266633 -6.922585 11.740837 14.692434 -32.376750 -0.553191 7.211775 -12.944963 -28.796109 21.901994 -7.004884 2.161533 65.908962 -0.044049 13.596298 -16.721503 29.981649 -2.219400 3.501897 5.503613 -14.630974 
1.171613 0.182495 0.987658 -88.951665 1.978486 86.908480 -1.468360 -3.857913 2.805926 -2.772534 -14.618820 7.647871 4.955122 9.969967 -18.522458 0.000000 -0.000000 0.000000 4.813094 -0.484764 -0.263377 2.843759 1.486382 9.933755 1.883146 -5.167574 -12.890190 0.000000 -0.000000 0.000000 -1.773125 0.873338 6.891272 2.123774 -4.118411 6.288129 0.215607 -1.847861 6.559962 2.729721 10.953701 6.556192 0.539289 3.676632 13.037196 -21.130805 4.943617 3.711742 -64.441918 -7.203913 11.736368 14.225198 -31.557056 1.085308 7.101991 -11.534632 -25.830835 21.537487 -6.557525 2.231554 66.284567 -0.101260 13.421068 -17.648473 29.962561 -1.662705 2.430631 4.699353 -13.416885 
1.172067 0.181544 0.986917 -89.583825 2.292800 86.989408 -1.242368 -3.647270 2.751575 -2.760201 -14.357545 7.565260 4.941757 10.224423 -18.911722 0.000000 -0.000000 0.000000 5.065797 -0.433355 -0.300187 2.789146 1.645061 9.807435 1.905569 -4.785561 -12.861112 0.000000 -0.000000 0.000000 -1.557856 0.965715 6.588753 2.194420 -4.039992 6.735645 0.221432 -1.725858 6.499670 2.693494 11.185874 6.634417 0.371485 3.604375 12.891884 -21.310156 4.644294 3.350087 -64.091719 -7.138183 11.702320 13.719876 -31.758005 2.119685 5.833156 -9.963884 -22.718701 21.682914 -6.172018 2.187878 66.115330 -0.084135 13.471242 -17.357799 30.226737 -0.878462 3.574364 3.850268 -12.743863 
1.172356 0.181315 0.986700 -89.835159 2.485149 87.201673 -0.994758 -3.582636 2.407618 -2.883753 -14.331152 7.758934 5.225722 10.363136 -18.902883 0.000000 -0.000000 0.000000 5.260836 -0.469734 -0.431199 2.786586 1.843535 9.621870 1.888987 -4.720106 -12.762264 0.000000 -0.000000 0.000000 -1.544526 1.030413 6.567354 2.320156 -3.901092 6.543180 0.276016 -1.779088 6.376680 2.748218 11.187348 6.820278 0.456737 3.713091 12.805573 -21.421670 4.872965 3.132603 -63.814140 -7.101442 11.553586 13.448325 -32.119753 2.412334 5.016910 -8.779019 -21.464643 21.734171 -6.312011 2.238827 66.149894 -0.223962 13.565402 -17.232354 30.561464 -0.641824 4.578075 3.249283 -12.930403 
1.172437 0.180738 0.986754 -90.116064 2.695026 87.149888 -0.840208 -3.525293 2.449556 -2.877218 -14.394293 7.856432 5.255569 10.531280 -18.997344 0.000000 -0.000000 0.000000 5.438388 -0.431028 -0.186600 2.759801 1.987855 9.298710 1.988250 -4.653987 -12.633193 0.000000 -0.000000 0.000000 -1.553315 1.145013 6.690413 2.399401 -3.829915 6.417490 0.354316 -1.758011 6.415992 2.820166 11.169858 7.122602 0.516529 3.586196 12.692850 -21.349585 4.967734 2.929318 -63.664817 -7.275789 11.402833 13.027005 -32.379411 2.737620 5.177964 -7.308046 -20.057457 21.833279 -6.264121 2.185931 66.370219 -0.251574 13.513493 -17.293762 30.577518 -1.217585 3.402772 3.231684 -13.075149 
1.172949 0.179869 0.986808 -90.428640 2.722237 87.173259 -0.837109 -3.340949 2.511658 -2.911924 -14.388497 7.662718 5.487610 10.683305 -19.053797 0.000000 -0.000000 0.000000 5.371785 -0.437384 -0.271441 2.768665 2.189243 9.408589 2.058349 -4.541309 -12.623586 0.000000 -0.000000 0.000000 -1.701038 1.205528 6.620870 2.438614 -3.818379 6.667958 0.383289 -1.673153 6.421645 2.876069 11.245277 6.966470 0.490297 3.468461 12.504793 -21.289487 4.898934 2.807103 -63.360808 -7.182772 11.389698 12.489574 -33.097146 3.659333 4.807235 -5.946658 -18.000408 22.045176 -6.335902 2.060123 66.380758 -0.094253 13.405733 -17.206511 30.941881 -1.147496 3.692351 3.202042 -12.417838 
1.173197 0.179019 0.986655 -90.557392 2.749775 87.231447 -0.821329 -3.154417 2.494025 -2.908478 -14.358539 7.513114 5.506404 10.577948 -18.877697 0.000000 -0.000000 0.000000 5.348489 -0.291168 -0.480898 2.755068 2.066834 9.657842 2.047004 -4.468561 -12.678367 0.000000 -0.000000 0.000000 -1.926941 1.316580 6.270551 2.543291 -3.917598 7.240671 0.436618 -1.649212 6.376447 2.964941 11.489367 6.865700 0.352296 3.311479 12.193228 -21.272559 4.592406 2.566603 -63.125889 -7.116742 11.487773 11.874297 -33.147513 5.277952 3.488044 -4.410959 -15.038294 22.005431 -6.122992 1.984920 66.570531 -0.247054 13.380581 -17.200544 31.241923 -0.951138 5.000380 2.690241 -12.969094 
1.173131 0.178020 0.986413 -90.574319 2.850063 87.480609 -0.746473 -2.970953 2.259636 -2.889625 -14.501993 7.431355 5.607496 10.608074 -18.824979 0.000000 -0.000000 0.000000 5.463414 -0.264753 -0.963971 2.659325 2.211615 10.019810 2.048167 -4.580467 -12.758867 0.000000 -0.000000 0.000000 -1.871574 1.208588 6.433738 2.514548 -3.856402 6.583988 0.413949 -1.796207 6.333893 3.029985 11.502483 7.192564 0.467752 3.428611 12.272059 -21.318005 4.833440 2.456264 -62.719913 -7.396071 10.942496 11.184817 -32.454311 5.448310 2.853458 -2.756911 -13.001849 21.847435 -6.270046 2.088614 66.709004 -0.601197 13.520088 -16.841555 31.625436 -0.451105 5.840840 2.492664 -13.122011 
1.173149 0.176138 0.986466 -90.242172 2.948653 87.570004 -0.690451 -2.932671 2.221360 -2.975597 -14.760076 7.263717 5.541790 10.465756 -18.726906 0.000000 -0.000000 0.000000 5.452815 -0.248520 -1.139533 2.636560 1.980652 10.251584 2.077611 -4.779390 -12.983044 0.000000 -0.000000 0.000000 -1.830891 1.029012 6.483987 2.552745 -3.993866 6.416853 0.418828 -1.863966 6.406002 3.046638 11.387976 7.050548 0.455138 3.260225 12.410346 -21.112100 4.745982 2.552758 -62.903300 -7.707607 11.011470 11.312642 -31.896499 5.554176 4.096462 -3.267863 -13.104326 22.008684 -6.320096 2.021777 66.484452 -0.593687 13.488596 -16.761242 31.583446 -0.198705 4.213420 3.426117 -12.747414 
1.173099 0.175161 0.986478 -90.259454 2.941856 87.530691 -0.685275 -2.823610 2.419458 -3.026640 -14.632743 6.969398 5.558221 10.263813 -18.730000 0.000000 -0.000000 0.000000 5.388132 -0.289223 -1.127167 2.550707 1.976808 10.380368 2.032425 -4.786452 -12.902234 0.000000 -0.000000 0.000000 -1.947215 1.032721 6.318481 2.573973 -4.113142 6.851355 0.455144 -1.834811 6.429935 2.913278 11.276310 6.911968 0.300468 3.077609 11.993294 -20.964184 4.598811 2.488080 -63.079246 -7.699631 11.016254 11.504208 -31.819015 5.591783 3.934151 -2.955257 -13.291664 21.952073 -6.097807 2.168716 66.613201 -0.401814 13.502798 -16.942984 31.552230 -0.134932 4.594362 2.825984 -12.573714 
1.172848 0.173963 0.986625 -90.231548 3.071823 87.492082 -0.654653 -2.880138 2.523790 -2.961674 -14.596330 6.855782 5.550210 10.256322 -18.578456 0.000000 -0.000000 0.000000 5.455114 -0.246625 -1.009616 2.514899 1.963675 10.269558 2.152697 -4.782698 -12.904057 0.000000 -0.000000 0.000000 -1.845822 0.983479 6.412173 2.581190 -4.117827 6.900087 0.450425 -1.810835 6.285138 3.017283 11.228320 6.993811 0.486552 3.061909 12.141474 -21.017254 4.459935 2.578483 -63.104922 -7.713843 10.954668 11.748806 -31.555094 5.160422 3.856965 -3.005543 -13.386027 21.882652 -6.008657 2.146277 66.628026 -0.511925 13.438664 -16.985998 31.302341 -0.264744 4.614595 2.950418 -12.632032 
1.172983 0.172781 0.986891 -90.169787 3.150133 87.460420 -0.627348 -2.805986 2.533683 -3.032953 -14.739579 6.884337 5.486433 10.242767 -18.580397 0.000000 -0.000000 0.000000 5.442444 -0.182932 -0.919943 2.538060 1.872785 10.122389 2.092833 -4.903129 -12.786282 0.000000 -0.000000 0.000000 -1.813254 0.972930 6.730882 2.606007 -4.075857 6.692675 0.516206 -1.862201 6.266114 2.995565 11.321391 7.019721 0.509097 3.211321 12.166267 -21.154122 4.457149 2.511257 -63.149316 -7.652521 10.933251 11.787749 -31.376622 5.172020 4.063299 -2.989090 -13.192860 21.944349 -6.052026 2.005032 66.457810 -0.633990 13.391297 -16.996916 31.291625 -0.344254 4.325074 2.919072 -12.571859 
1.172512 0.171351 0.986969 -90.142087 3.180203 87.501178 -0.693906 -2.636449 2.547569 -3.011090 -14.891368 6.822381 5.458977 10.200568 -18.621192 0.000000 -0.000000 0.000000 5.366453 -0.307591 -0.862293 2.495572 1.876621 10.046330 2.151954 -4.782192 -12.832321 0.000000 -0.000000 0.000000 -1.693740 0.906879 6.963552 2.520745 -4.043143 6.232096 0.507813 -1.891368 6.285847 3.014907 11.106880 7.069117 0.575918 3.287571 12.198969 -21.204574 4.601612 2.657445 -63.155992 -7.402648 10.860710 11.582278 -31.594328 5.486386 4.213761 -3.056043 -13.181125 21.856903 -6.007912 2.176407 66.424177 -0.748252 13.199999 -16.996510 31.264891 -0.375110 4.076478 2.990011 -12.389310 
1.172490 0.170675 0.986831 -90.227253 3.265849 87.586811 -0.614924 -2.684219 2.461829 -3.086635 -14.751555 6.841487 5.533214 10.191396 -18.623595 0.000000 -0.000000 0.000000 5.384274 -0.221902 -0.968374 2.545462 1.920561 10.130338 2.099120 -4.842782 -12.757202 0.000000 -0.000000 0.000000 -1.721792 0.929822 6.621654 2.590125 -4.073787 6.714483 0.489370 -1.809879 6.289838 3.117584 10.973421 6.995006 0.617440 3.033361 12.042914 -21.283758 4.582652 2.659880 -63.201354 -7.440343 10.980506 11.653211 -31.598935 5.459804 3.767254 -2.988437 -13.386414 21.957155 -5.903539 2.141393 66.309360 -0.628819 13.236651 -17.281676 31.248771 -0.619731 4.407925 3.031202 -12.507182 
1.172210 0.169791 0.986807 -90.343810 3.258053 87.551957 -0.685007 -2.641302 2.604693 -3.035007 -14.662704 6.658626 5.497565 10.169169 -18.690227 0.000000 -0.000000 0.000000 5.281475 -0.323300 -0.904727 2.551497 1.892017 10.087711 2.133554 -4.686113 -12.752310 0.000000 -0.000000 0.000000 -1.741518 0.977424 6.698107 2.557153 -4.071368 6.650467 0.461243 -1.747424 6.285447 3.258412 11.016261 6.987199 0.613112 3.000885 12.245687 -21.266195 4.727353 2.565264 -63.272639 -7.390013 10.957160 11.364574 -31.113747 5.571524 3.715290 -3.773000 -13.094554 21.857558 -6.025639 2.108059 66.351567 -0.641171 13.222819 -17.259727 31.289600 -0.564885 4.508292 3.229069 -12.414185 
